<svg xmlns="http://www.w3.org/2000/svg" xmlns:xlink="http://www.w3.org/1999/xlink" viewBox="0 0 795.75 150.17"><defs><style>.cls-1{fill:#e8e6f2;}.cls-2{fill:url(#未命名的渐变_251);}.cls-3{fill:url(#未命名的渐变_251-2);}.cls-4{fill:url(#未命名的渐变_251-3);}.cls-5{fill:url(#未命名的渐变_251-4);}.cls-6{fill:url(#未命名的渐变_251-5);}.cls-7{fill:url(#未命名的渐变_251-6);}.cls-8{fill:url(#未命名的渐变_257);}.cls-9{fill:url(#未命名的渐变_257-2);}.cls-10{fill:url(#未命名的渐变_257-3);}</style><linearGradient id="未命名的渐变_251" x1="110.48" y1="80.73" x2="33.48" y2="80.73" gradientUnits="userSpaceOnUse"><stop offset="0" stop-color="#401c9e"/><stop offset="1" stop-color="#2bebfc"/></linearGradient><linearGradient id="未命名的渐变_251-2" x1="110.48" y1="111.59" x2="33.48" y2="111.59" xlink:href="#未命名的渐变_251"/><linearGradient id="未命名的渐变_251-3" x1="71.04" y1="65.68" x2="110.04" y2="132.85" xlink:href="#未命名的渐变_251"/><linearGradient id="未命名的渐变_251-4" x1="97.73" y1="50.24" x2="136.73" y2="117.4" xlink:href="#未命名的渐变_251"/><linearGradient id="未命名的渐变_251-5" x1="78.49" y1="106.67" x2="115.99" y2="41.84" xlink:href="#未命名的渐变_251"/><linearGradient id="未命名的渐变_251-6" x1="51.77" y1="91.22" x2="89.27" y2="26.38" xlink:href="#未命名的渐变_251"/><linearGradient id="未命名的渐变_257" x1="131.24" y1="61.46" x2="131.24" y2="46.37" gradientUnits="userSpaceOnUse"><stop offset="0" stop-color="#401c9e"/><stop offset="1" stop-color="#2beafc"/></linearGradient><linearGradient id="未命名的渐变_257-2" x1="4957.68" y1="-1846.75" x2="4957.68" y2="-1861.84" gradientTransform="translate(4122.49 3427.82) rotate(-120)" xlink:href="#未命名的渐变_257"/><linearGradient id="未命名的渐变_257-3" x1="4197.01" y1="3287.17" x2="4197.01" y2="3272.09" gradientTransform="translate(5029.82 -1856.27) rotate(120)" xlink:href="#未命名的渐变_257"/></defs><title>LOGO</title><g id="图层_2" data-name="图层 2"><g id="图层_1-2" data-name="图层 1"><path class="cls-1" d="M296.59,48.42H239.17c-18.64,0-22.66,9-22.66,26.58s4.15,26.48,22.66,26.48h57.42v12.2H239.17c-25.22,0-34.68-12.88-34.68-38.68s9.36-38.7,34.68-38.7h57.42Z"/><path class="cls-1" d="M407.25,75c0,30.88-17.22,39.82-50.53,39.82s-50.54-9-50.54-39.82,17.24-39.65,50.54-39.65S407.25,44.23,407.25,75Zm-12,0c0-24.1-13.29-27.94-38.51-27.94S318.2,50.9,318.2,75s13.31,27.94,38.52,27.94S395.23,99.21,395.23,75Z"/><path class="cls-1" d="M434.8,36.3v77.38H423.1V36.3Z"/><path class="cls-1" d="M466.11,113.68H454.24V36.3h8.95c18.51,0,23.61,6.69,43.19,35,18.63,26.8,20.75,29.87,30.33,29.87h.59V36.25h11.87v77.43h-8.93c-17.35,0-22.57-6.22-43-34.84C477.57,51.46,476.07,49,466.82,49h-.71Z"/><path class="cls-1" d="M645.12,74.1C655.54,76.93,659.9,84.28,659.9,93c0,11.43-7.66,20.69-26.92,20.69H568.56V36.3h63c23.08,0,26.27,12.62,26.27,20.26C657.88,65.83,653.08,71.72,645.12,74.1Zm-11.87-5.41c8.61,0,13.41-3.73,13.41-10.51s-4.36-10.81-13.41-10.81H580V68.66ZM580,79.51v23.07h54.37c11.59,0,14-6,14-11,0-5.87-3.5-12.09-14-12.09Z"/><path class="cls-1" d="M687.55,36.3v77.38h-11.7V36.3Z"/><path class="cls-1" d="M795.75,73.31v40.37H738.11c-25.32,0-34.58-13.12-34.58-38.79s9.26-38.59,34.58-38.59H795V48.42H738.18c-18.51,0-22.66,9-22.66,26.47s4.15,26.59,22.66,26.59H784V73.31Z"/><polygon class="cls-2" points="44.54 57.59 26.73 57.59 17.82 73.02 35.63 103.87 102.13 103.87 93.22 88.44 44.55 88.44 35.64 73.01 44.54 57.59"/><polygon class="cls-3" points="8.91 88.44 26.72 119.3 111.04 119.3 102.13 134.74 17.82 134.73 0 103.88 8.91 88.44"/><polygon class="cls-4" points="84.33 134.73 93.23 150.16 111.05 150.16 128.86 119.31 95.61 61.72 86.7 77.15 111.04 119.3 102.13 134.74 84.33 134.73"/><polygon class="cls-5" points="104.52 46.3 122.33 46.29 164.49 119.31 146.68 150.16 128.86 150.17 146.68 119.31 104.52 46.3"/><polygon class="cls-6" points="80.18 88.44 104.52 46.3 122.33 46.29 131.24 61.71 140.14 46.28 131.24 30.86 95.61 30.86 62.36 88.44 80.18 88.44"/><polygon class="cls-7" points="44.55 88.44 86.7 15.43 122.33 15.43 113.42 0 77.79 0 35.64 73.01 44.55 88.44"/><polygon class="cls-8" points="122.33 46.29 131.24 61.71 140.14 46.28 122.33 46.29"/><polygon class="cls-9" points="35.64 73.01 44.54 57.59 26.73 57.59 35.64 73.01"/><polygon class="cls-10" points="102.13 134.74 84.32 134.74 93.23 150.16 102.13 134.74"/></g></g></svg>